<?xml version="1.0" standalone="no"?><!-- Generator: Gravit.io --><svg xmlns="http://www.w3.org/2000/svg" xmlns:xlink="http://www.w3.org/1999/xlink" style="isolation:isolate" viewBox="0 0 250 110" width="250" height="110"><defs><clipPath id="_clipPath_k7heaXqJPBfzQLJ5CenzCCygL1WnTeNB"><rect width="250" height="110"/></clipPath></defs><g clip-path="url(#_clipPath_k7heaXqJPBfzQLJ5CenzCCygL1WnTeNB)"><path d=" M 95.45 75.114 C 94.259 74.253 93.993 72.606 94.854 71.414 C 95.707 70.235 97.363 69.96 98.553 70.821 C 99.733 71.673 99.999 73.338 99.146 74.517 C 98.285 75.709 96.629 75.967 95.45 75.114 Z  M 57.968 75.551 C 46.863 67.523 44.379 52.002 52.418 40.883 C 60.457 29.763 75.972 27.257 87.078 35.285 C 98.179 43.311 100.665 58.831 92.627 69.95 C 84.588 81.07 69.07 83.577 57.968 75.551 Z  M 77.79 87.673 C 77.071 87.789 76.37 87.6 75.82 87.203 C 75.271 86.806 74.872 86.201 74.756 85.477 C 74.524 84.04 75.513 82.675 76.95 82.444 C 77.675 82.326 78.377 82.515 78.925 82.912 C 79.475 83.309 79.872 83.917 79.988 84.637 C 80.22 86.087 79.244 87.44 77.79 87.673 Z  M 53.396 81.876 C 52.204 81.015 51.946 79.357 52.798 78.178 C 53.659 76.988 55.306 76.724 56.498 77.585 C 57.678 78.438 57.953 80.092 57.092 81.283 C 56.24 82.462 54.576 82.729 53.396 81.876 Z  M 43.276 62.72 C 42.552 62.834 41.851 62.648 41.302 62.252 C 40.754 61.855 40.357 61.247 40.24 60.523 C 40.008 59.085 40.986 57.721 42.435 57.487 C 43.152 57.371 43.853 57.559 44.403 57.957 C 44.953 58.355 45.353 58.962 45.468 59.682 C 45.703 61.134 44.712 62.488 43.276 62.72 Z  M 67.387 22.971 C 68.111 22.853 68.811 23.042 69.36 23.439 C 69.909 23.836 70.306 24.443 70.422 25.163 C 70.656 26.612 69.678 27.966 68.227 28.199 C 67.507 28.315 66.805 28.128 66.255 27.731 C 65.706 27.334 65.308 26.728 65.191 26.004 C 64.96 24.567 65.947 23.201 67.387 22.971 Z  M 91.79 28.767 C 92.97 29.62 93.243 31.276 92.382 32.467 C 91.53 33.646 89.866 33.913 88.686 33.06 C 87.494 32.198 87.236 30.541 88.088 29.362 C 88.949 28.172 90.598 27.905 91.79 28.767 Z  M 101.908 47.923 C 102.626 47.807 103.327 47.997 103.876 48.394 C 104.426 48.791 104.826 49.398 104.941 50.118 C 105.175 51.569 104.187 52.923 102.75 53.154 C 102.024 53.271 101.324 53.084 100.775 52.687 C 100.227 52.291 99.83 51.684 99.712 50.958 C 99.481 49.521 100.458 48.156 101.908 47.923 Z  M 46.632 39.823 C 45.442 38.963 45.176 37.316 46.038 36.123 C 46.89 34.944 48.546 34.669 49.736 35.529 C 50.916 36.382 51.182 38.047 50.33 39.226 C 49.468 40.418 47.812 40.676 46.632 39.823 Z  M 93.312 26.661 C 81.578 18.178 66.399 17.938 54.643 24.816 L 49.997 21.457 C 49.895 20.777 49.535 20.135 48.937 19.703 C 47.746 18.842 46.092 19.117 45.238 20.297 C 44.377 21.489 44.642 23.136 45.832 23.997 C 46.431 24.43 47.154 24.574 47.833 24.455 L 51.345 26.994 C 48.528 29.098 45.976 31.658 43.807 34.658 C 41.639 37.658 40.007 40.884 38.893 44.218 L 35.477 41.749 C 35.418 41 35.057 40.276 34.404 39.805 C 33.214 38.944 31.559 39.22 30.706 40.399 C 29.844 41.591 30.109 43.239 31.3 44.099 C 31.949 44.568 32.741 44.69 33.469 44.515 L 37.921 47.733 C 34.936 61.136 39.912 75.628 51.734 84.175 C 67.591 95.638 89.756 92.057 101.237 76.175 C 112.72 60.292 109.169 38.124 93.312 26.661 Z " fill="rgb(255,255,255)" vector-effect="non-scaling-stroke" stroke-width="2" stroke="rgb(50,109,230)" stroke-linejoin="miter" stroke-linecap="square" stroke-miterlimit="3"/><path d=" M 84.421 72.987 C 84.751 72.761 85.064 72.511 85.381 72.267 C 83.893 72.219 82.696 71.047 82.696 69.605 C 82.696 69.605 82.696 69.605 82.696 69.603 L 81.781 69.603 C 81.781 69.605 81.781 69.605 81.781 69.605 C 81.781 71.078 80.533 72.277 79 72.277 C 77.468 72.277 76.221 71.078 76.22 69.605 C 76.22 69.605 76.221 69.605 76.221 69.603 L 76.22 69.603 L 75.307 69.603 C 75.307 69.605 75.307 69.605 75.307 69.605 C 75.305 71.078 74.059 72.277 72.526 72.277 C 70.993 72.277 69.746 71.078 69.745 69.605 C 69.745 69.605 69.745 69.605 69.745 69.603 L 68.831 69.603 C 68.831 69.605 68.831 69.605 68.831 69.605 C 68.83 71.078 67.583 72.277 66.051 72.277 C 64.518 72.277 63.271 71.078 63.27 69.605 C 63.27 69.605 63.27 69.605 63.27 69.603 L 62.357 69.603 L 62.356 69.603 C 62.356 69.605 62.356 69.605 62.356 69.605 C 62.356 71.047 61.157 72.219 59.67 72.268 C 57.433 70.547 55.548 68.397 54.146 65.928 L 54.146 65.928 C 55.103 65.659 55.896 65.023 56.363 64.193 C 56.988 65.304 58.197 66.068 59.601 66.068 C 61.003 66.068 62.212 65.304 62.837 64.193 C 63.462 65.304 64.671 66.068 66.075 66.068 C 67.48 66.068 68.689 65.304 69.314 64.193 C 69.939 65.304 71.148 66.068 72.55 66.068 C 73.954 66.068 75.163 65.304 75.788 64.193 C 76.413 65.304 77.622 66.068 79.025 66.068 C 80.429 66.068 81.638 65.304 82.263 64.193 C 82.888 65.304 84.097 66.068 85.501 66.068 C 86.906 66.068 88.113 65.304 88.738 64.193 C 89.199 65.011 89.976 65.637 90.913 65.913 L 90.914 65.913 C 89.312 68.738 87.091 71.164 84.421 72.987 Z  M 60.254 72.706 C 60.385 72.803 60.51 72.906 60.645 72.998 C 61.579 72.721 62.354 72.094 62.813 71.279 C 63.438 72.39 64.647 73.156 66.051 73.156 C 67.454 73.156 68.663 72.39 69.288 71.279 C 69.913 72.39 71.122 73.156 72.526 73.156 C 73.93 73.156 75.138 72.39 75.763 71.279 C 76.389 72.39 77.597 73.156 79 73.156 C 80.405 73.156 81.614 72.39 82.239 71.279 C 82.697 72.094 83.472 72.72 84.406 72.998 C 81.02 75.306 76.931 76.658 72.527 76.658 C 67.945 76.658 63.717 75.184 60.254 72.706 Z  M 72.527 34.31 C 84.202 34.31 93.669 43.789 93.669 55.484 C 93.669 56.206 93.632 56.918 93.561 57.621 L 93.561 57.621 C 93.111 57.923 92.566 58.103 91.976 58.103 C 90.443 58.103 89.197 56.904 89.195 55.431 C 89.195 55.431 89.195 55.431 89.195 55.429 L 88.281 55.429 C 88.281 55.431 88.281 55.431 88.281 55.431 C 88.281 56.904 87.032 58.103 85.501 58.103 C 83.968 58.103 82.72 56.904 82.72 55.431 C 82.72 55.431 82.72 55.431 82.72 55.429 L 81.806 55.429 C 81.806 55.431 81.806 55.431 81.806 55.431 C 81.806 56.904 80.558 58.103 79.025 58.103 C 77.493 58.103 76.245 56.904 76.245 55.431 C 76.245 55.431 76.245 55.431 76.245 55.429 L 75.331 55.429 C 75.331 55.431 75.331 55.431 75.331 55.431 C 75.329 56.904 74.083 58.103 72.55 58.103 C 71.019 58.103 69.771 56.904 69.771 55.431 C 69.771 55.431 69.771 55.431 69.771 55.429 L 68.857 55.429 C 68.857 55.431 68.857 55.431 68.857 55.431 C 68.855 56.904 67.609 58.103 66.075 58.103 C 64.542 58.103 63.296 56.904 63.294 55.431 C 63.294 55.431 63.294 55.431 63.294 55.429 L 62.382 55.429 L 62.38 55.429 C 62.38 55.431 62.38 55.431 62.38 55.431 C 62.38 56.904 61.132 58.103 59.601 58.103 C 58.068 58.103 56.822 56.904 56.82 55.431 C 56.82 55.431 56.82 55.431 56.82 55.429 L 55.906 55.429 C 55.906 55.431 55.906 55.431 55.906 55.431 C 55.906 56.904 54.657 58.103 53.124 58.103 C 52.51 58.103 51.948 57.904 51.488 57.579 C 51.42 56.889 51.382 56.191 51.382 55.484 C 51.382 43.789 60.847 34.31 72.527 34.31 Z  M 88.281 62.517 C 88.281 62.517 88.281 62.517 88.281 62.519 C 88.281 63.992 87.032 65.189 85.501 65.189 C 83.968 65.189 82.72 63.992 82.72 62.519 C 82.72 62.517 82.72 62.517 82.72 62.517 L 81.806 62.517 C 81.806 62.517 81.806 62.517 81.806 62.519 C 81.806 63.992 80.558 65.189 79.025 65.189 C 77.493 65.189 76.245 63.992 76.245 62.519 C 76.245 62.517 76.245 62.517 76.245 62.517 L 75.331 62.517 C 75.331 62.517 75.331 62.517 75.331 62.519 C 75.329 63.992 74.083 65.189 72.55 65.189 C 71.019 65.189 69.771 63.992 69.771 62.519 C 69.771 62.517 69.771 62.517 69.771 62.517 L 68.857 62.517 C 68.857 62.517 68.857 62.517 68.857 62.519 C 68.855 63.992 67.609 65.189 66.075 65.189 C 64.542 65.189 63.296 63.992 63.294 62.519 C 63.294 62.517 63.294 62.517 63.294 62.517 L 62.382 62.517 L 62.38 62.517 C 62.38 62.517 62.38 62.517 62.38 62.519 C 62.38 63.992 61.132 65.189 59.601 65.189 C 58.068 65.189 56.822 63.992 56.82 62.519 C 56.82 62.517 56.82 62.517 56.82 62.517 L 55.906 62.517 C 55.906 62.517 55.906 62.517 55.906 62.519 C 55.906 63.797 54.966 64.864 53.716 65.125 L 53.716 65.125 C 52.699 63.138 51.995 60.97 51.649 58.681 C 52.099 58.875 52.598 58.982 53.124 58.982 C 54.529 58.982 55.738 58.217 56.363 57.105 C 56.988 58.217 58.197 58.982 59.601 58.982 C 61.003 58.982 62.212 58.217 62.837 57.105 C 63.462 58.217 64.671 58.982 66.075 58.982 C 67.48 58.982 68.689 58.217 69.314 57.105 C 69.939 58.217 71.148 58.982 72.55 58.982 C 73.954 58.982 75.163 58.217 75.788 57.105 C 76.413 58.217 77.622 58.982 79.025 58.982 C 80.429 58.982 81.638 58.217 82.263 57.105 C 82.888 58.217 84.097 58.982 85.501 58.982 C 86.906 58.982 88.113 58.217 88.738 57.105 C 89.365 58.217 90.572 58.982 91.976 58.982 C 92.483 58.982 92.962 58.88 93.4 58.7 C 93.052 60.977 92.352 63.135 91.341 65.112 C 90.114 64.835 89.196 63.781 89.195 62.519 C 89.195 62.517 89.195 62.517 89.195 62.517 L 88.281 62.517 Z  M 91.975 66.065 C 93.689 62.919 94.664 59.313 94.664 55.484 C 94.664 43.261 84.733 33.315 72.527 33.315 C 60.319 33.315 50.387 43.261 50.387 55.484 C 50.387 58.943 51.184 62.219 52.6 65.138 L 52.6 65.138 C 52.619 65.177 52.639 65.213 52.658 65.251 C 52.793 65.524 52.93 65.796 53.075 66.062 C 53.075 66.063 53.076 66.064 53.076 66.065 L 53.076 66.065 C 56.834 72.963 64.143 77.653 72.527 77.653 C 80.908 77.653 88.216 72.964 91.973 66.068 L 91.973 66.068 C 91.974 66.067 91.974 66.066 91.975 66.065 Z " fill="rgb(254,254,254)" vector-effect="non-scaling-stroke" stroke-width="1" stroke="rgb(50,109,230)" stroke-linejoin="miter" stroke-linecap="square" stroke-miterlimit="3"/><g transform="matrix(1,0,0,1,116.119,40.099)"><text transform="matrix(1,0,0,1,0,21.377)" style="font-family:'Open Sans';font-weight:600;font-size:20px;font-style:normal;fill:#326de6;stroke:none;">netramesh</text></g><path d=" M 67 76.658 Q 53.224 71.882 51 57" fill="none" vector-effect="non-scaling-stroke" stroke-width="1" stroke="rgb(50,109,230)" stroke-linejoin="miter" stroke-linecap="square" stroke-miterlimit="3"/><path d=" M 66.075 76.335 Q 82.247 80.566 90.913 67.335" fill="none" vector-effect="non-scaling-stroke" stroke-width="1" stroke="rgb(50,109,230)" stroke-linejoin="miter" stroke-linecap="square" stroke-miterlimit="3"/><path d=" M 88.738 69.529 Q 96.408 61.77 93 48" fill="none" vector-effect="non-scaling-stroke" stroke-width="1" stroke="rgb(50,109,230)" stroke-linejoin="miter" stroke-linecap="square" stroke-miterlimit="3"/><ellipse vector-effect="non-scaling-stroke" cx="56.363037109375" cy="56.24224853515625" rx="0.5" ry="0.75775146484375" fill="rgb(50,109,230)"/><ellipse vector-effect="non-scaling-stroke" cx="62.794036865234375" cy="56.24224853515625" rx="0.5" ry="0.75775146484375" fill="rgb(50,109,230)"/><ellipse vector-effect="non-scaling-stroke" cx="69.363037109375" cy="56.24224853515625" rx="0.5" ry="0.75775146484375" fill="rgb(50,109,230)"/><ellipse vector-effect="non-scaling-stroke" cx="75.363037109375" cy="56.24224853515625" rx="0.5" ry="0.75775146484375" fill="rgb(50,109,230)"/><ellipse vector-effect="non-scaling-stroke" cx="82.363037109375" cy="56.24224853515625" rx="0.5" ry="0.75775146484375" fill="rgb(50,109,230)"/><ellipse vector-effect="non-scaling-stroke" cx="88.738037109375" cy="56.24224853515625" rx="0.5" ry="0.75775146484375" fill="rgb(50,109,230)"/><ellipse vector-effect="non-scaling-stroke" cx="56.363037109375" cy="63.24224853515628" rx="0.5" ry="0.7577514648437536" fill="rgb(50,109,230)"/><ellipse vector-effect="non-scaling-stroke" cx="62.794036865234375" cy="63.24224853515628" rx="0.5" ry="0.7577514648437536" fill="rgb(50,109,230)"/><ellipse vector-effect="non-scaling-stroke" cx="69.363037109375" cy="63.24224853515628" rx="0.5" ry="0.7577514648437536" fill="rgb(50,109,230)"/><ellipse vector-effect="non-scaling-stroke" cx="75.363037109375" cy="63.24224853515625" rx="0.5" ry="0.75775146484375" fill="rgb(50,109,230)"/><ellipse vector-effect="non-scaling-stroke" cx="82.363037109375" cy="63.24224853515625" rx="0.5" ry="0.75775146484375" fill="rgb(50,109,230)"/><ellipse vector-effect="non-scaling-stroke" cx="88.363037109375" cy="63.24224853515625" rx="0.5" ry="0.75775146484375" fill="rgb(50,109,230)"/><ellipse vector-effect="non-scaling-stroke" cx="62.79724602192593" cy="70.38698483933989" rx="0.5" ry="0.75775146484375" fill="rgb(50,109,230)"/><ellipse vector-effect="non-scaling-stroke" cx="69.363037109375" cy="70.24224853515625" rx="0.5" ry="0.75775146484375" fill="rgb(50,109,230)"/><ellipse vector-effect="non-scaling-stroke" cx="75.363037109375" cy="70.24224853515625" rx="0.5" ry="0.75775146484375" fill="rgb(50,109,230)"/><ellipse vector-effect="non-scaling-stroke" cx="82.21830080519135" cy="70.22909440587075" rx="0.5" ry="0.75775146484375" fill="rgb(50,109,230)"/></g></svg>