<?xml version="1.0" standalone="no"?><!-- Generator: Gravit.io --><svg xmlns="http://www.w3.org/2000/svg" xmlns:xlink="http://www.w3.org/1999/xlink" style="isolation:isolate" viewBox="0 0 250 110" width="250" height="110"><defs><clipPath id="_clipPath_6nekWCfXStMfTfr9bnCVemd8kLCMc5pu"><rect width="250" height="110"/></clipPath></defs><g clip-path="url(#_clipPath_6nekWCfXStMfTfr9bnCVemd8kLCMc5pu)"><path d=" M 102.807 58.015 C 101.338 58.015 100.157 56.836 100.157 55.365 C 100.157 53.91 101.338 52.717 102.807 52.717 C 104.262 52.717 105.453 53.91 105.453 55.365 C 105.453 56.836 104.262 58.015 102.807 58.015 Z  M 72.688 80.328 C 58.985 80.328 47.879 69.205 47.879 55.484 C 47.879 41.763 58.985 30.642 72.688 30.642 C 86.387 30.642 97.494 41.763 97.494 55.484 C 97.494 69.205 86.387 80.328 72.688 80.328 Z  M 95.854 78.539 C 95.338 79.054 94.66 79.312 93.981 79.312 C 93.304 79.312 92.626 79.056 92.108 78.537 C 91.078 77.508 91.08 75.822 92.109 74.793 C 92.628 74.273 93.307 74.015 93.984 74.015 C 94.662 74.015 95.34 74.275 95.856 74.791 C 96.893 75.83 96.895 77.498 95.854 78.539 Z  M 72.688 88.133 C 71.217 88.133 70.037 86.941 70.037 85.486 C 70.037 84.017 71.217 82.838 72.688 82.838 C 74.144 82.838 75.336 84.017 75.336 85.486 C 75.336 86.941 74.144 88.133 72.688 88.133 Z  M 53.264 78.537 C 52.744 79.054 52.067 79.314 51.39 79.314 C 50.713 79.314 50.035 79.054 49.516 78.535 C 48.486 77.506 48.479 75.828 49.516 74.789 C 50.03 74.275 50.708 74.017 51.387 74.017 C 52.066 74.017 52.745 74.275 53.26 74.791 C 54.301 75.83 54.292 77.508 53.264 78.537 Z  M 49.516 32.199 C 50.034 31.679 50.712 31.422 51.389 31.422 C 52.067 31.422 52.744 31.681 53.26 32.197 C 54.299 33.234 54.299 34.904 53.26 35.943 C 52.744 36.459 52.066 36.719 51.387 36.719 C 50.71 36.719 50.032 36.461 49.514 35.943 C 48.484 34.914 48.484 33.228 49.516 32.199 Z  M 72.688 22.599 C 74.144 22.599 75.336 23.781 75.336 25.25 C 75.336 26.705 74.144 27.896 72.688 27.896 C 71.217 27.896 70.037 26.705 70.037 25.25 C 70.037 23.781 71.217 22.599 72.688 22.599 Z  M 92.111 32.195 C 92.625 31.681 93.304 31.424 93.982 31.424 C 94.66 31.424 95.34 31.681 95.855 32.197 C 96.895 33.236 96.887 34.912 95.858 35.941 C 95.338 36.461 94.661 36.72 93.984 36.72 C 93.308 36.72 92.63 36.461 92.109 35.941 C 91.08 34.912 91.072 33.234 92.111 32.195 Z  M 42.569 58.015 C 41.101 58.015 39.92 56.836 39.92 55.365 C 39.92 53.91 41.101 52.717 42.569 52.717 C 44.025 52.717 45.216 53.91 45.216 55.365 C 45.216 56.836 44.025 58.015 42.569 58.015 Z  M 72.688 20 C 58.209 20 45.767 28.699 40.269 41.16 L 34.536 41.16 C 34.055 40.668 33.387 40.359 32.649 40.359 C 31.18 40.359 30 41.551 30 43.008 C 30 44.478 31.18 45.658 32.649 45.658 C 33.388 45.658 34.058 45.351 34.539 44.857 L 38.872 44.857 C 37.822 48.213 37.254 51.782 37.254 55.484 C 37.254 59.186 37.822 62.756 38.872 66.111 L 34.657 66.111 C 34.171 65.539 33.454 65.164 32.649 65.164 C 31.18 65.164 30 66.357 30 67.812 C 30 69.283 31.18 70.463 32.649 70.463 C 33.45 70.463 34.163 70.097 34.65 69.529 L 40.144 69.529 C 45.577 82.139 58.1 90.969 72.688 90.969 C 92.254 90.969 108.119 75.082 108.119 55.484 C 108.119 35.885 92.254 20 72.688 20 Z " fill="rgb(255,255,255)" vector-effect="non-scaling-stroke" stroke-width="2" stroke="rgb(50,109,230)" stroke-linejoin="miter" stroke-linecap="square" stroke-miterlimit="3"/><path d=" M 84.421 72.987 C 84.751 72.761 85.064 72.511 85.381 72.267 C 83.893 72.219 82.696 71.047 82.696 69.605 C 82.696 69.605 82.696 69.605 82.696 69.603 L 81.781 69.603 C 81.781 69.605 81.781 69.605 81.781 69.605 C 81.781 71.078 80.533 72.277 79 72.277 C 77.468 72.277 76.221 71.078 76.22 69.605 C 76.22 69.605 76.221 69.605 76.221 69.603 L 76.22 69.603 L 75.307 69.603 C 75.307 69.605 75.307 69.605 75.307 69.605 C 75.305 71.078 74.059 72.277 72.526 72.277 C 70.993 72.277 69.746 71.078 69.745 69.605 C 69.745 69.605 69.745 69.605 69.745 69.603 L 68.831 69.603 C 68.831 69.605 68.831 69.605 68.831 69.605 C 68.83 71.078 67.583 72.277 66.051 72.277 C 64.518 72.277 63.271 71.078 63.27 69.605 C 63.27 69.605 63.27 69.605 63.27 69.603 L 62.357 69.603 L 62.356 69.603 C 62.356 69.605 62.356 69.605 62.356 69.605 C 62.356 71.047 61.157 72.219 59.67 72.268 C 57.433 70.547 55.548 68.397 54.146 65.928 L 54.146 65.928 C 55.103 65.659 55.896 65.023 56.363 64.193 C 56.988 65.304 58.197 66.068 59.601 66.068 C 61.003 66.068 62.212 65.304 62.837 64.193 C 63.462 65.304 64.671 66.068 66.075 66.068 C 67.48 66.068 68.689 65.304 69.314 64.193 C 69.939 65.304 71.148 66.068 72.55 66.068 C 73.954 66.068 75.163 65.304 75.788 64.193 C 76.413 65.304 77.622 66.068 79.025 66.068 C 80.429 66.068 81.638 65.304 82.263 64.193 C 82.888 65.304 84.097 66.068 85.501 66.068 C 86.906 66.068 88.113 65.304 88.738 64.193 C 89.199 65.011 89.976 65.637 90.913 65.913 L 90.914 65.913 C 89.312 68.738 87.091 71.164 84.421 72.987 Z  M 60.254 72.706 C 60.385 72.803 60.51 72.906 60.645 72.998 C 61.579 72.721 62.354 72.094 62.813 71.279 C 63.438 72.39 64.647 73.156 66.051 73.156 C 67.454 73.156 68.663 72.39 69.288 71.279 C 69.913 72.39 71.122 73.156 72.526 73.156 C 73.93 73.156 75.138 72.39 75.763 71.279 C 76.389 72.39 77.597 73.156 79 73.156 C 80.405 73.156 81.614 72.39 82.239 71.279 C 82.697 72.094 83.472 72.72 84.406 72.998 C 81.02 75.306 76.931 76.658 72.527 76.658 C 67.945 76.658 63.717 75.184 60.254 72.706 Z  M 72.527 34.31 C 84.202 34.31 93.669 43.789 93.669 55.484 C 93.669 56.206 93.632 56.918 93.561 57.621 L 93.561 57.621 C 93.111 57.923 92.566 58.103 91.976 58.103 C 90.443 58.103 89.197 56.904 89.195 55.431 C 89.195 55.431 89.195 55.431 89.195 55.429 L 88.281 55.429 C 88.281 55.431 88.281 55.431 88.281 55.431 C 88.281 56.904 87.032 58.103 85.501 58.103 C 83.968 58.103 82.72 56.904 82.72 55.431 C 82.72 55.431 82.72 55.431 82.72 55.429 L 81.806 55.429 C 81.806 55.431 81.806 55.431 81.806 55.431 C 81.806 56.904 80.558 58.103 79.025 58.103 C 77.493 58.103 76.245 56.904 76.245 55.431 C 76.245 55.431 76.245 55.431 76.245 55.429 L 75.331 55.429 C 75.331 55.431 75.331 55.431 75.331 55.431 C 75.329 56.904 74.083 58.103 72.55 58.103 C 71.019 58.103 69.771 56.904 69.771 55.431 C 69.771 55.431 69.771 55.431 69.771 55.429 L 68.857 55.429 C 68.857 55.431 68.857 55.431 68.857 55.431 C 68.855 56.904 67.609 58.103 66.075 58.103 C 64.542 58.103 63.296 56.904 63.294 55.431 C 63.294 55.431 63.294 55.431 63.294 55.429 L 62.382 55.429 L 62.38 55.429 C 62.38 55.431 62.38 55.431 62.38 55.431 C 62.38 56.904 61.132 58.103 59.601 58.103 C 58.068 58.103 56.822 56.904 56.82 55.431 C 56.82 55.431 56.82 55.431 56.82 55.429 L 55.906 55.429 C 55.906 55.431 55.906 55.431 55.906 55.431 C 55.906 56.904 54.657 58.103 53.124 58.103 C 52.51 58.103 51.948 57.904 51.488 57.579 C 51.42 56.889 51.382 56.191 51.382 55.484 C 51.382 43.789 60.847 34.31 72.527 34.31 Z  M 88.281 62.517 C 88.281 62.517 88.281 62.517 88.281 62.519 C 88.281 63.992 87.032 65.189 85.501 65.189 C 83.968 65.189 82.72 63.992 82.72 62.519 C 82.72 62.517 82.72 62.517 82.72 62.517 L 81.806 62.517 C 81.806 62.517 81.806 62.517 81.806 62.519 C 81.806 63.992 80.558 65.189 79.025 65.189 C 77.493 65.189 76.245 63.992 76.245 62.519 C 76.245 62.517 76.245 62.517 76.245 62.517 L 75.331 62.517 C 75.331 62.517 75.331 62.517 75.331 62.519 C 75.329 63.992 74.083 65.189 72.55 65.189 C 71.019 65.189 69.771 63.992 69.771 62.519 C 69.771 62.517 69.771 62.517 69.771 62.517 L 68.857 62.517 C 68.857 62.517 68.857 62.517 68.857 62.519 C 68.855 63.992 67.609 65.189 66.075 65.189 C 64.542 65.189 63.296 63.992 63.294 62.519 C 63.294 62.517 63.294 62.517 63.294 62.517 L 62.382 62.517 L 62.38 62.517 C 62.38 62.517 62.38 62.517 62.38 62.519 C 62.38 63.992 61.132 65.189 59.601 65.189 C 58.068 65.189 56.822 63.992 56.82 62.519 C 56.82 62.517 56.82 62.517 56.82 62.517 L 55.906 62.517 C 55.906 62.517 55.906 62.517 55.906 62.519 C 55.906 63.797 54.966 64.864 53.716 65.125 L 53.716 65.125 C 52.699 63.138 51.995 60.97 51.649 58.681 C 52.099 58.875 52.598 58.982 53.124 58.982 C 54.529 58.982 55.738 58.217 56.363 57.105 C 56.988 58.217 58.197 58.982 59.601 58.982 C 61.003 58.982 62.212 58.217 62.837 57.105 C 63.462 58.217 64.671 58.982 66.075 58.982 C 67.48 58.982 68.689 58.217 69.314 57.105 C 69.939 58.217 71.148 58.982 72.55 58.982 C 73.954 58.982 75.163 58.217 75.788 57.105 C 76.413 58.217 77.622 58.982 79.025 58.982 C 80.429 58.982 81.638 58.217 82.263 57.105 C 82.888 58.217 84.097 58.982 85.501 58.982 C 86.906 58.982 88.113 58.217 88.738 57.105 C 89.365 58.217 90.572 58.982 91.976 58.982 C 92.483 58.982 92.962 58.88 93.4 58.7 C 93.052 60.977 92.352 63.135 91.341 65.112 C 90.114 64.835 89.196 63.781 89.195 62.519 C 89.195 62.517 89.195 62.517 89.195 62.517 L 88.281 62.517 Z  M 91.975 66.065 C 93.689 62.919 94.664 59.313 94.664 55.484 C 94.664 43.261 84.733 33.315 72.527 33.315 C 60.319 33.315 50.387 43.261 50.387 55.484 C 50.387 58.943 51.184 62.219 52.6 65.138 L 52.6 65.138 C 52.619 65.177 52.639 65.213 52.658 65.251 C 52.793 65.524 52.93 65.796 53.075 66.062 C 53.075 66.063 53.076 66.064 53.076 66.065 L 53.076 66.065 C 56.834 72.963 64.143 77.653 72.527 77.653 C 80.908 77.653 88.216 72.964 91.973 66.068 L 91.973 66.068 C 91.974 66.067 91.974 66.066 91.975 66.065 Z " fill="rgb(254,254,254)" vector-effect="non-scaling-stroke" stroke-width="1" stroke="rgb(50,109,230)" stroke-linejoin="miter" stroke-linecap="square" stroke-miterlimit="3"/><g transform="matrix(1,0,0,1,116.119,40.099)"><text transform="matrix(1,0,0,1,0,21.377)" style="font-family:'Open Sans';font-weight:600;font-size:20px;font-style:normal;fill:#326de6;stroke:none;">netramesh</text></g></g></svg>